<?xml version="1.0" standalone="no"?><!DOCTYPE svg PUBLIC "-//W3C//DTD SVG 1.1//EN" "http://www.w3.org/Graphics/SVG/1.1/DTD/svg11.dtd"><svg t="1577542144626" class="icon" viewBox="0 0 1148 1024" version="1.1" xmlns="http://www.w3.org/2000/svg" p-id="2582" xmlns:xlink="http://www.w3.org/1999/xlink" width="224.21875" height="200"><defs><style type="text/css"></style></defs><path d="M1042.537043 681.002286C1040.1653 692.704964 1030.1166 701.255722 1018.133057 701.786243L427.038552 727.750587C426.664066 727.781794 426.258373 727.781794 425.85268 727.781794 411.996709 727.781794 400.450066 716.890501 399.85713 702.940908 399.20178 688.616829 410.373937 676.508457 424.76043 675.853107L995.507878 650.793771 1089.378966 190.894097 326.926035 190.894097C312.508335 190.894097 300.868071 179.253832 300.868071 164.898546 300.868071 150.574467 312.508335 138.934203 326.926035 138.934203L1121.272666 138.934203C1129.105659 138.934203 1136.501752 142.429403 1141.463688 148.483589 1146.394417 154.506568 1148.391674 162.464389 1146.80011 170.078932L1042.537043 681.002286ZM1051.743151 790.539359C1066.129644 790.539359 1077.801115 802.179624 1077.801115 816.503703 1077.801115 830.858989 1066.129644 842.499253 1051.743151 842.499253L330.327614 842.499253C317.470271 842.499253 306.547771 833.13711 304.581721 820.46701L186.213025 52.33438 26.057965 52.33438C11.640265 52.33438 0 40.694115 0 26.338829 0 12.01475 11.640265 0.374486 26.057965 0.374486L208.588547 0.374486C221.477097 0.374486 232.399598 9.736629 234.365648 22.406729L352.703136 790.539359 1051.743151 790.539359ZM424.229909 873.300704C465.922653 873.300704 499.81361 907.129248 499.81361 948.665956 499.81361 990.202664 465.922653 1024 424.229909 1024 382.505958 1024 348.583793 990.202664 348.583793 948.665956 348.583793 907.129248 382.505958 873.300704 424.229909 873.300704ZM424.229909 972.040106C437.149666 972.040106 447.666474 961.554506 447.666474 948.665956 447.666474 935.746198 437.149666 925.260598 424.229909 925.260598 411.247737 925.260598 400.73093 935.746198 400.73093 948.665956 400.73093 961.554506 411.247737 972.040106 424.229909 972.040106ZM961.83537 873.300704C1003.528114 873.300704 1037.450279 907.129248 1037.450279 948.665956 1037.450279 990.202664 1003.528114 1024 961.83537 1024 920.142626 1024 886.220461 990.202664 886.220461 948.665956 886.220461 907.129248 920.142626 873.300704 961.83537 873.300704ZM961.83537 972.040106C974.786335 972.040106 985.334349 961.554506 985.334349 948.665956 985.334349 935.746198 974.786335 925.260598 961.83537 925.260598 948.915613 925.260598 938.367598 935.746198 938.367598 948.665956 938.367598 961.554506 948.915613 972.040106 961.83537 972.040106Z" p-id="2583" fill="#FF3B30"></path></svg>