<?xml version="1.0" standalone="no"?><!DOCTYPE svg PUBLIC "-//W3C//DTD SVG 1.1//EN" "http://www.w3.org/Graphics/SVG/1.1/DTD/svg11.dtd"><svg t="1580811177884" class="icon" viewBox="0 0 1026 1024" version="1.1" xmlns="http://www.w3.org/2000/svg" p-id="3261" xmlns:xlink="http://www.w3.org/1999/xlink" width="200.390625" height="200"><defs><style type="text/css"></style></defs><path d="M512.023273 46.545455c256.651636 0 465.454545 208.802909 465.454545 465.454545s-208.802909 465.454545-465.454545 465.454545-465.454545-208.802909-465.454545-465.454545S255.371636 46.545455 512.023273 46.545455M512.023273 0c-282.763636 0-512 229.236364-512 512s229.236364 512 512 512 512-229.236364 512-512S794.810182 0 512.023273 0L512.023273 0z" p-id="3262" fill="#cdcdcd"></path><path d="M725.76 749.032727c-5.957818 0-11.915636-2.280727-16.453818-6.818909l-427.450182-427.52c-9.099636-9.099636-9.099636-23.831273 0-32.907636 9.099636-9.099636 23.808-9.099636 32.907636 0l427.450182 427.52c9.099636 9.099636 9.099636 23.831273 0 32.907636C737.675636 746.752 731.717818 749.032727 725.76 749.032727z" p-id="3263" fill="#cdcdcd"></path><path d="M298.263273 749.009455c-5.957818 0-11.915636-2.280727-16.453818-6.818909-9.099636-9.099636-9.099636-23.831273 0-32.907636L709.352727 281.809455c9.099636-9.099636 23.808-9.099636 32.907636 0s9.099636 23.831273 0 32.907636L314.717091 742.190545C310.178909 746.728727 304.221091 749.009455 298.263273 749.009455z" p-id="3264" fill="#cdcdcd"></path></svg>