<?xml version="1.0" encoding="UTF-8"?>
<svg width="80px" height="72px" viewBox="0 0 80 72" version="1.1" xmlns="http://www.w3.org/2000/svg" xmlns:xlink="http://www.w3.org/1999/xlink">
    <!-- Generator: Sketch 54.1 (76490) - https://sketchapp.com -->
    <title>优惠券</title>
    <desc>Created with Sketch.</desc>
    <g id="组件" stroke="none" stroke-width="1" fill="none" fill-rule="evenodd">
        <g id="代金劵/代金劵" transform="translate(-32.000000, -22.000000)">
            <g id="优惠券">
                <g transform="translate(32.000000, 22.000000)">
                    <g id="编组">
                        <polygon id="路径-2" fill="#FEB21C" points="61.0988069 27.0573272 61.0988069 69.5970027 7.55538783 70.5942383 3.78662109 70.5942383 1.09863281 68.4584961 1.09863281 56.3369141 3.78662109 55.3325195 6.85498047 53.1005859 8.39306641 50.0925908 8.39306641 46.6386719 6.85498047 43.7754257 4.84375 41.6484349 2.17561496 40.7670898 1.09863281 40.0319359 1.09863281 29.0771484 2.88818359 26.716979 5.578125 25.9150391 8.39306641 25.9150391 13.7382812 12.1918945 15.8808594 10.534668 17.8251953 10.534668 20.6035156 12.1918945 22.6274414 12.1918945 27.0820312 7.93847656 33.2468785 1.27490234 35.6069336 1.27490234 38.2182617 2.13818359 49.0776367 13.3993733 59.8067727 24.887842"></polygon>
                        <path d="M59.5738349,26.716979 L37.3558753,3.12867682 C36.1697899,1.8737514 34.1153088,1.8737514 32.9504027,3.12867682 L23.4828638,13.1680453 L21.9367125,11.7004208 L31.4042514,1.66105232 C33.3951858,-0.444660674 36.9110922,-0.444660674 38.8808473,1.66105232 L61.0988069,25.2493545 L59.5738349,26.716979 L59.5738349,26.716979 Z" id="路径" fill="#000000" fill-rule="nonzero"></path>
                        <path d="M54.5117339,26.9509558 L18.4207974,11.785558 L18.4207972,11.7855579 C16.8609028,11.1107511 15.0516171,11.8336153 14.3796645,13.4001202 C14.3553532,13.4567958 14.3327389,13.5141904 14.311852,13.5722266 L9.54632223,26.3554576 L7.55538783,25.6110126 L12.3209176,12.8277816 C12.8292413,11.466511 13.8247102,10.4030156 15.1378803,9.85000327 C16.4510504,9.27571664 17.9124757,9.27571664 19.2256457,9.82873337 L55.3377789,24.9941312 L54.5117532,26.950961 L54.5117339,26.9509558 Z M58.7477632,62.9183076 C58.1547188,62.9183076 57.6887537,62.4503705 57.6887537,61.8548122 L57.6887537,59.7278215 C57.6887537,59.1322649 58.154717,58.6643261 58.7477632,58.6643261 C59.3408077,58.6643261 59.8067727,59.1322632 59.8067727,59.7278215 L59.8067727,61.8548122 C59.8067727,62.4503688 59.3408094,62.9183076 58.7477632,62.9183076 Z M58.7477632,54.410362 C58.1547188,54.410362 57.6887537,53.9424249 57.6887537,53.3468666 L57.6887537,51.2198759 C57.6887537,50.6243193 58.154717,50.1563805 58.7477632,50.1563805 C59.3408077,50.1563805 59.8067727,50.6243176 59.8067727,51.2198759 L59.8067727,53.3468666 C59.8067727,53.9424232 59.3408094,54.410362 58.7477632,54.410362 Z M58.7477632,45.9024164 C58.1547188,45.9024164 57.6887537,45.4344793 57.6887537,44.8389211 L57.6887537,42.7119303 C57.6887537,42.1163738 58.154717,41.6484349 58.7477632,41.6484349 C59.3408077,41.6484349 59.8067727,42.116372 59.8067727,42.7119303 L59.8067727,44.8389211 C59.8067727,45.4344776 59.3408094,45.9024164 58.7477632,45.9024164 Z M58.7477632,37.3944709 C58.1547188,37.3944709 57.6887537,36.9265338 57.6887537,36.3309755 L57.6887537,34.2039847 C57.6887537,33.6084282 58.154717,33.1404893 58.7477632,33.1404893 C59.3408077,33.1404893 59.8067727,33.6084264 59.8067727,34.2039847 L59.8067727,36.3309755 C59.8067727,36.926532 59.3408094,37.3944709 58.7477632,37.3944709 Z M46.9716087,40.0319359 L19.5221482,40.0319359 C18.9291037,40.0319359 18.4631387,39.5639988 18.4631387,38.9684405 C18.4631386,38.372884 18.929102,37.9049451 19.5221482,37.9049451 L46.9716087,37.9049451 C47.5646532,37.9049451 48.0306182,38.3728822 48.0306182,38.9684405 C48.0306183,39.5639971 47.5646549,40.0319359 46.9716087,40.0319359 Z M46.9716087,50.0925908 L19.5221482,50.0925908 C18.9291037,50.0925908 18.4631387,49.6246537 18.4631387,49.0290955 C18.4631386,48.4335389 18.929102,47.9656001 19.5221482,47.9656001 L46.9716087,47.9656001 C47.5646532,47.9656001 48.0306182,48.4335372 48.0306182,49.0290955 C48.0306183,49.624652 47.5646549,50.0925908 46.9716087,50.0925908 Z M46.9716087,60.1532458 L19.5221482,60.1532458 C18.9291037,60.1532458 18.4631387,59.6853087 18.4631387,59.0897504 C18.4631386,58.4941939 18.929102,58.026255 19.5221482,58.026255 L46.9716087,58.026255 C47.5646532,58.026255 48.0306182,58.4941921 48.0306182,59.0897504 C48.0306183,59.6853069 47.5646549,60.1532458 46.9716087,60.1532458 Z" id="形状" fill="#000000" fill-rule="nonzero"></path>
                        <path d="M74.484668,71.7240197 L5.43738685,71.7240197 C2.4721689,71.7240197 0.0576306887,69.2992537 0.0576306887,66.3214754 L0.0576306887,55.9843579 C0.0576306887,55.3888013 0.523594005,54.9208625 1.1166402,54.9208625 C4.52664127,54.9208625 7.280066,51.9643532 7.280066,48.3059308 C7.280066,44.7325933 4.46310331,41.6909992 1.1166402,41.6909992 C0.523595743,41.6909992 0.0576306887,41.2230621 0.0576306887,40.6275038 L0.0576306887,30.2903863 C0.0576306887,27.312608 2.4721689,24.887842 5.43738685,24.887842 L74.484668,24.887842 C77.449886,24.887842 79.8644242,27.312608 79.8644242,30.2903863 L79.8644242,40.6275038 C79.8644242,41.2230603 79.3984609,41.6909992 78.8054147,41.6909992 C75.3954136,41.6909992 72.6419889,44.6475085 72.6419889,48.3059308 C72.6419889,51.9430754 75.4165842,54.9208625 78.8054147,54.9208625 C79.3984591,54.9208625 79.8644242,55.3887996 79.8644242,55.9843579 L79.8644242,66.3214754 C79.8644242,69.2992537 77.449886,71.7240197 74.484668,71.7240197 Z M2.17561496,56.9840025 L2.17561496,66.3214405 C2.17561496,68.1293782 3.63704896,69.5970027 5.43736079,69.5970027 L74.484642,69.5970027 C76.2849538,69.5970027 77.7463878,68.1293782 77.7463878,66.3214405 L77.7463878,56.9840025 C73.6798017,56.4309858 70.5239612,52.7512988 70.5239612,48.327165 C70.5239612,43.8817621 73.6798017,40.2233485 77.7463878,39.6703274 L77.7463878,30.3328895 C77.7463878,28.5249517 76.2849538,27.0573272 74.484642,27.0573272 L5.43736079,27.0573272 C3.63704896,27.0573272 2.17561496,28.5249517 2.17561496,30.3328895 L2.17561496,39.6703274 C6.1786631,40.244614 9.39804159,43.9668383 9.39804159,48.327165 C9.39804159,52.7725678 6.24220106,56.4309814 2.17561496,56.9840025 Z" id="形状" fill="#000000" fill-rule="nonzero"></path>
                    </g>
                </g>
            </g>
        </g>
    </g>
</svg>