<?xml version="1.0" encoding="UTF-8"?>
<svg width="101px" height="78px" viewBox="0 0 101 78" version="1.1" xmlns="http://www.w3.org/2000/svg" xmlns:xlink="http://www.w3.org/1999/xlink">
    <!-- Generator: Sketch 54.1 (76490) - https://sketchapp.com -->
    <title>暂无优惠券</title>
    <desc>Created with Sketch.</desc>
    <g id="页面1" stroke="none" stroke-width="1" fill="none" fill-rule="evenodd">
        <g id="优惠券-暂无优惠券" transform="translate(-129.000000, -163.000000)">
            <g id="暂无优惠券" transform="translate(129.000000, 163.000000)">
                <g id="优惠券复制" transform="translate(0.000000, 7.000000)" fill-rule="nonzero">
                    <polygon id="路径-5" fill="#C9C9C9" points="2 8 38.1260359 8 38.1260359 18.3962745 39.8740387 13.1981373 54 13.1981373 51.699393 20.7098662 51.699393 40 2 40"></polygon>
                    <path d="M38.284626,25.4630272 C37.3182447,25.4630272 36.54099,26.2265699 36.54099,27.1595482 L36.54099,38.024055 C36.54099,38.9570333 37.3181801,39.7140837 38.284626,39.7140837 C39.2434448,39.7140837 40.0216044,38.9570333 40.0216044,38.024055 L40.0216044,27.1595482 C40.0216044,26.2265699 39.2434448,25.4630272 38.284626,25.4630272 M60.8489281,5.51703485 C60.5660785,4.9070791 59.9467955,4.51646045 59.259321,4.51646045 L44.829854,4.51646045 C44.3693831,4.51646045 43.9240371,4.69805325 43.5921284,5.02113949 C43.4521902,5.16085073 41.7274927,6.89785298 40.0216044,9.81657688 L40.0216044,1.69142901 C40.0216044,0.760296515 39.2434448,0 38.284626,0 L1.73988709,1.8090353e-15 C0.777707165,1.8090353e-15 0,0.760296515 0,1.69142901 L0,39.3035427 C0,40.2429496 0.777707165,41 1.73988709,41 L32.3927444,41 C33.3515633,41 34.1334718,40.242886 34.1334718,39.3035427 C34.1334718,38.3741923 33.3515633,37.6134503 32.3927444,37.6134503 L3.47596062,37.6134503 L3.47596062,3.38839556 L36.54099,3.38839556 L36.54099,22.1415912 C36.54099,23.079216 37.3181801,23.8390033 38.284626,23.8390033 C39.2434448,23.8390033 40.0216044,23.079216 40.0216044,22.1415912 C40.0216044,14.9354824 44.1964156,9.52646123 45.6109222,7.90262827 L55.7419284,7.90262827 C53.5338786,11.0284685 50.4920172,16.3918528 50.4920172,22.1415912 L50.4920172,37.6134503 L43.8029728,37.6134503 C42.8403405,37.6134503 42.0631504,38.3741923 42.0631504,39.3035427 C42.0631504,40.2429496 42.8403405,41 43.8029728,41 L52.2280907,41 C53.1907231,41 53.9679778,40.242886 53.9679778,39.3035427 L53.9679778,22.142546 C53.9679778,14.6188885 60.4943965,7.40908795 60.5586453,7.33735465 C61.0144623,6.84158659 61.1278995,6.12692696 60.8489281,5.51703485" id="形状" fill="#C9C9C9"></path>
                    <path d="M20.0037491,31 C20.7344358,31 21.3330792,30.4156402 21.3330792,29.6922346 L21.3330792,25.0662376 L26.6725762,25.0662376 C27.4069485,25.0662376 28,24.4818145 28,23.7584088 C28,23.0339901 27.4069485,22.4504534 26.6725762,22.4504534 L21.3331427,22.4504534 L21.3331427,18.6841852 L26.159526,18.6841852 C26.8948514,18.6841852 27.4888561,18.0977993 27.4888561,17.374457 C27.4888561,16.6528242 26.8948514,16.0665016 26.159526,16.0665016 L23.0249249,16.0665016 L26.6280322,12.1965189 C27.1244976,11.6647761 27.0873247,10.8339202 26.5462517,10.3475764 C26.0042892,9.85433086 25.1658327,9.89092854 24.6684777,10.4263437 L20.0037491,15.4385158 L15.3400372,10.4263437 C14.8426822,9.89092854 14.0004766,9.85806661 13.4622631,10.3475764 C12.916615,10.8339202 12.8794421,11.6647761 13.3767335,12.1965189 L16.9798408,16.0665016 L13.8443502,16.0665016 C13.1136634,16.0665016 12.5122242,16.6528242 12.5122242,17.374457 C12.5122242,18.0977993 13.1136634,18.6841852 13.8443502,18.6841852 L18.6726398,18.6841852 L18.6726398,22.4504534 L13.3293301,22.4504534 C12.5977537,22.4504534 12,23.0339901 12,23.7584088 C12,24.4818145 12.5977537,25.0662376 13.3293301,25.0662376 L18.6726398,25.0662376 L18.6726398,29.6922346 C18.6726398,30.4156402 19.2694403,31 20.0037491,31" id="路径" fill="#ADADAD"></path>
                </g>
                <g id="优惠券" transform="translate(21.000000, 0.000000)" fill-rule="nonzero">
                    <polygon id="路径-5" fill="#FEB21C" points="3.03515625 10.3261719 50.20498 10.3261719 50.20498 23.9648438 52.4873501 17.1455078 70.9316406 17.1455078 67.9277344 27 67.9277344 52.3063541 3.03515625 52.3063541"></polygon>
                    <path d="M50.2093456,33.53667 C48.9419603,33.53667 47.9226098,34.5423116 47.9226098,35.7711123 L47.9226098,50.0804626 C47.9226098,51.3092634 48.9418755,52.3063541 50.2093456,52.3063541 C51.4668129,52.3063541 52.4873501,51.3092634 52.4873501,50.0804626 L52.4873501,35.7711123 C52.4873501,34.5423116 51.4668129,33.53667 50.2093456,33.53667 M79.8018729,7.26633859 C79.4309226,6.46298222 78.6187482,5.94850889 77.7171423,5.94850889 L58.7932511,5.94850889 C58.1893549,5.94850889 57.6052946,6.18767989 57.1700044,6.6132081 C56.986479,6.79721804 54.7245806,9.0849771 52.4873501,12.92915 L52.4873501,2.22773578 C52.4873501,1.00136614 51.4668129,0 50.2093456,0 L2.28181913,2.38263185e-15 C1.01994382,2.38263185e-15 0,1.00136614 0,2.22773578 L0,51.7656415 C0,53.0029093 1.01994382,54 2.28181913,54 L42.4822878,54 C43.7397551,54 44.7652089,53.0028254 44.7652089,51.7656415 C44.7652089,50.5416192 43.7397551,49.5396662 42.4822878,49.5396662 L4.55863688,49.5396662 L4.55863688,4.46276488 L47.9226098,4.46276488 L47.9226098,29.1620958 C47.9226098,30.3970162 48.9418755,31.3977117 50.2093456,31.3977117 C51.4668129,31.3977117 52.4873501,30.3970162 52.4873501,29.1620958 C52.4873501,19.6711232 57.9625123,12.5470465 59.8176029,10.4083397 L73.1041683,10.4083397 C70.2083654,14.5253 66.2190389,21.5892696 66.2190389,29.1620958 L66.2190389,49.5396662 L57.4465218,49.5396662 C56.1840531,49.5396662 55.1647874,50.5416192 55.1647874,51.7656415 C55.1647874,53.0029093 56.1840531,54 57.4465218,54 L68.4958567,54 C69.7583254,54 70.7776758,53.0028254 70.7776758,51.7656415 L70.7776758,29.1633533 C70.7776758,19.2541458 79.3369135,9.75831095 79.4211741,9.66383296 C80.018967,9.01087014 80.1677371,8.06961112 79.8018729,7.26633859" id="形状" fill="#454541"></path>
                    <path d="M26.2454976,41.1695195 C27.2202594,41.1695195 28.0188707,40.3958395 28.0188707,39.4380657 L28.0188707,33.3133432 L35.1419474,33.3133432 C36.1216258,33.3133432 36.9127774,32.5395793 36.9127774,31.5818055 C36.9127774,30.6226904 36.1216258,29.8501001 35.1419474,29.8501001 L28.0189554,29.8501001 L28.0189554,24.8636405 L34.4575203,24.8636405 C35.4384703,24.8636405 36.2308934,24.0872778 36.2308934,23.1295878 C36.2308934,22.1741613 35.4384703,21.3978825 34.4575203,21.3978825 L30.2758524,21.3978825 L35.0825242,16.274107 C35.7448264,15.5700908 35.6952364,14.4700551 34.9734261,13.8261461 C34.250429,13.1730994 33.1318985,13.221554 32.4684095,13.9304324 L26.2454976,20.5664426 L20.023942,13.9304324 C19.3604529,13.221554 18.2369211,13.1780455 17.5189254,13.8261461 C16.7910117,14.4700551 16.7414217,15.5700908 17.4048259,16.274107 L22.2114977,21.3978825 L18.028643,21.3978825 C17.0538812,21.3978825 16.2515401,22.1741613 16.2515401,23.1295878 C16.2515401,24.0872778 17.0538812,24.8636405 18.028643,24.8636405 L24.469751,24.8636405 L24.469751,29.8501001 L17.3415881,29.8501001 C16.3656395,29.8501001 15.568215,30.6226904 15.568215,31.5818055 C15.568215,32.5395793 16.3656395,33.3133432 17.3415881,33.3133432 L24.469751,33.3133432 L24.469751,39.4380657 C24.469751,40.3958395 25.2659039,41.1695195 26.2454976,41.1695195" id="路径" fill="#36362F"></path>
                </g>
                <ellipse id="椭圆形" fill="#E5E5E5" cx="51.5" cy="71.5" rx="37.5" ry="6.5"></ellipse>
            </g>
        </g>
    </g>
</svg>