<?xml version="1.0" standalone="no"?><!DOCTYPE svg PUBLIC "-//W3C//DTD SVG 1.1//EN" "http://www.w3.org/Graphics/SVG/1.1/DTD/svg11.dtd"><svg t="1583769449736" class="icon" viewBox="0 0 1195 1024" version="1.1" xmlns="http://www.w3.org/2000/svg" p-id="3211" xmlns:xlink="http://www.w3.org/1999/xlink" width="233.3984375" height="200"><defs><style type="text/css"></style></defs><path d="M1174.514354 107.471458H20.367301a20.367301 20.367301 0 0 0 0 40.734602h100.410794a20.367301 20.367301 0 0 0 0 4.412915l55.602731 777.284095v1.833057a109.508188 109.508188 0 0 0 108.625605 92.195982h625.072466a109.508188 109.508188 0 0 0 108.625605-92.195982v-0.882583l55.670622-778.234569a20.367301 20.367301 0 0 0 0-4.412915h100.410794a20.367301 20.367301 0 0 0 0-40.734602z m-140.805941 42.228204l-55.53484 776.333621a68.909368 68.909368 0 0 1-67.891003 57.232115H284.870649a68.909368 68.909368 0 0 1-67.891003-57.232115L161.173241 149.699662v-1.493602H1033.979977c-0.067891 0.543128-0.271564 1.018365-0.271564 1.493602zM456.566996 40.734602h281.747663a20.367301 20.367301 0 0 0 0-40.734602h-281.747663a20.367301 20.367301 0 1 0 0 40.734602z" p-id="3212" fill="#FF3B30"></path><path d="M387.250282 871.245243a20.367301 20.367301 0 0 0 20.367301-20.367301V293.76437a20.367301 20.367301 0 0 0-40.734602 0v557.113572a20.367301 20.367301 0 0 0 20.367301 20.367301zM597.440827 871.245243a20.367301 20.367301 0 0 0 20.367301-20.367301V293.76437a20.367301 20.367301 0 0 0-40.734602 0v557.113572a20.367301 20.367301 0 0 0 20.367301 20.367301zM807.631373 871.245243a20.367301 20.367301 0 0 0 20.367301-20.367301V293.76437a20.367301 20.367301 0 0 0-40.734602 0v557.113572a20.367301 20.367301 0 0 0 20.367301 20.367301z" p-id="3213" fill="#FF3B30"></path></svg>