<?xml version="1.0" standalone="no"?><!DOCTYPE svg PUBLIC "-//W3C//DTD SVG 1.1//EN" "http://www.w3.org/Graphics/SVG/1.1/DTD/svg11.dtd"><svg t="1580813641723" class="icon" viewBox="0 0 1025 1024" version="1.1" xmlns="http://www.w3.org/2000/svg" p-id="4895" xmlns:xlink="http://www.w3.org/1999/xlink" width="200.1953125" height="200"><defs><style type="text/css"></style></defs><path d="M960 460.8c-19.2 0-38.4 12.8-38.4 32v38.4c0 19.2 19.2 32 38.4 32s38.4-12.8 38.4-32v-38.4c0-19.2-19.2-32-38.4-32zM1011.2 38.4c-12.8-19.2-38.4-19.2-57.6 0l-556.8 556.8c-19.2 12.8-19.2 38.4 0 57.6 12.8 19.2 38.4 19.2 57.6 0l556.8-556.8c19.2-12.8 19.2-38.4 0-57.6z" p-id="4896" fill="#cdcdcd"></path><path d="M960 620.8c-25.6 0-38.4 19.2-38.4 38.4v192c0 32-25.6 64-64 64h-684.8c-32 0-64-25.6-64-64v-684.8c0-32 25.6-64 64-64h416c19.2 0 38.4-19.2 38.4-38.4s-19.2-38.4-38.4-38.4h-416c-76.8 0-140.8 64-140.8 140.8v691.2c0 76.8 64 140.8 140.8 140.8h684.8c76.8 0 140.8-64 140.8-140.8v-198.4c0-25.6-19.2-38.4-38.4-38.4z" p-id="4897" fill="#cdcdcd"></path></svg>