<?xml version="1.0" standalone="no"?><!DOCTYPE svg PUBLIC "-//W3C//DTD SVG 1.1//EN" "http://www.w3.org/Graphics/SVG/1.1/DTD/svg11.dtd"><svg t="1583767131119" class="icon" viewBox="0 0 1025 1024" version="1.1" xmlns="http://www.w3.org/2000/svg" p-id="2128" xmlns:xlink="http://www.w3.org/1999/xlink" width="200.1953125" height="200"><defs><style type="text/css"></style></defs><path d="M1022.955213 394.773333c-2.56-7.744-9.173333-13.376-17.258667-14.549333L677.78188 332.586667 531.15788 35.477333c-7.168-14.592-31.125333-14.592-38.314667 0L346.19788 332.586667l-327.893333 47.637333c-8.042667 1.173333-14.72 6.805333-17.258667 14.549333-2.517333 7.722667-0.405333 16.192 5.418667 21.888l237.269333 231.253333L187.712546 974.506667c-1.365333 8 1.92 16.085333 8.512 20.885333 6.570667 4.778667 15.296 5.44 22.485333 1.642667L512.000546 842.816l293.226667 154.218667c3.136 1.621333 6.570667 2.453333 9.984 2.453333 4.437333 0 8.810667-1.408 12.586667-4.096 6.549333-4.778667 9.834667-12.885333 8.490667-20.885333l-56-326.549333 237.290667-231.296C1023.424546 410.986667 1025.451213 402.496 1022.955213 394.773333zM742.400546 625.173333c-5.013333 4.906667-7.36 11.989333-6.144 18.922667l50.581333 294.954667-264.896-139.264C518.827213 798.122667 515.41388 797.312 512.000546 797.312s-6.848 0.810667-9.962667 2.474667L237.14188 939.093333l50.581333-294.997333c1.173333-6.912-1.109333-14.016-6.144-18.922667L67.28588 416.277333l296.192-43.029333c6.954667-1.002667 12.949333-5.397333 16.085333-11.690667L512.000546 93.184l132.458667 268.352c3.114667 6.314667 9.088 10.688 16.064 11.690667l296.192 43.029333L742.400546 625.173333z" p-id="2129" fill="#707070"></path></svg>