<?xml version="1.0" standalone="no"?><!DOCTYPE svg PUBLIC "-//W3C//DTD SVG 1.1//EN" "http://www.w3.org/Graphics/SVG/1.1/DTD/svg11.dtd"><svg t="1583768086854" class="icon" viewBox="0 0 1025 1024" version="1.1" xmlns="http://www.w3.org/2000/svg" p-id="4234" xmlns:xlink="http://www.w3.org/1999/xlink" width="200.1953125" height="200"><defs><style type="text/css"></style></defs><path d="M1022.976546 394.773333c-2.581333-7.744-9.237333-13.376-17.28-14.549333L677.78188 332.586667 531.115213 35.477333c-7.168-14.592-31.104-14.592-38.272 0L346.19788 332.586667 18.283213 380.224c-8.021333 1.173333-14.72 6.805333-17.237333 14.549333-2.517333 7.722667-0.405333 16.192 5.418667 21.888l237.269333 231.253333L187.712546 974.506667c-1.365333 8 1.92 16.085333 8.512 20.885333 6.570667 4.778667 15.296 5.44 22.485333 1.642667L512.000546 842.816l293.248 154.218667c3.114667 1.621333 6.549333 2.453333 9.962667 2.453333 4.416 0 8.789333-1.408 12.544-4.096 6.592-4.778667 9.877333-12.864 8.533333-20.885333l-56-326.549333 237.248-231.296C1023.424546 410.986667 1025.451213 402.496 1022.976546 394.773333z" p-id="4235" fill="#e64340"></path></svg>