<?xml version="1.0" standalone="no"?><!DOCTYPE svg PUBLIC "-//W3C//DTD SVG 1.1//EN" "http://www.w3.org/Graphics/SVG/1.1/DTD/svg11.dtd"><svg t="1577530571647" class="icon" viewBox="0 0 1024 1024" version="1.1" xmlns="http://www.w3.org/2000/svg" p-id="2470" xmlns:xlink="http://www.w3.org/1999/xlink" width="200" height="200"><defs><style type="text/css"></style></defs><path d="M547.584 802.83648c20.89984 20.89984 20.89984 54.80448 0 75.70432-20.89984 20.91008-54.79424 20.91008-75.70432 0l-328.704-328.69376c-10.4448-10.45504-15.6672-24.14592-15.6672-37.84704s5.23264-27.40224 15.6672-37.84704l328.704-328.69376c20.91008-20.91008 54.80448-20.91008 75.70432 0 20.89984 20.89984 20.89984 54.79424 0 75.70432L256.74752 512 547.584 802.83648zM589.96736 512l290.83648-290.83648c20.89984-20.91008 20.89984-54.80448 0-75.70432-20.89984-20.91008-54.79424-20.91008-75.70432 0l-328.704 328.69376c-10.4448 10.45504-15.6672 24.14592-15.6672 37.84704s5.23264 27.40224 15.6672 37.84704l328.704 328.69376c20.91008 20.91008 54.80448 20.91008 75.70432 0 20.89984-20.89984 20.89984-54.80448 0-75.70432L589.96736 512z" p-id="2471" fill="#ffffff"></path></svg>