<?xml version="1.0" standalone="no"?><!DOCTYPE svg PUBLIC "-//W3C//DTD SVG 1.1//EN" "http://www.w3.org/Graphics/SVG/1.1/DTD/svg11.dtd"><svg t="1577530650739" class="icon" viewBox="0 0 1024 1024" version="1.1" xmlns="http://www.w3.org/2000/svg" p-id="4503" xmlns:xlink="http://www.w3.org/1999/xlink" width="200" height="200"><defs><style type="text/css"></style></defs><path d="M767.25248 512 476.40576 221.16352c-20.89984-20.91008-20.89984-54.80448 0-75.70432 20.89984-20.91008 54.79424-20.91008 75.70432 0l328.704 328.69376c10.4448 10.45504 15.6672 24.14592 15.6672 37.84704s-5.23264 27.40224-15.6672 37.84704l-328.704 328.69376c-20.91008 20.91008-54.80448 20.91008-75.70432 0-20.89984-20.89984-20.89984-54.80448 0-75.70432L767.25248 512zM143.18592 802.83648c-20.89984 20.89984-20.89984 54.80448 0 75.70432 20.89984 20.91008 54.784 20.91008 75.70432 0l328.704-328.69376c10.4448-10.45504 15.65696-24.14592 15.65696-37.84704s-5.2224-27.40224-15.65696-37.84704l-328.704-328.69376c-20.92032-20.91008-54.80448-20.91008-75.70432 0-20.89984 20.89984-20.89984 54.79424 0 75.70432L434.03264 512 143.18592 802.83648z" p-id="4504" fill="#ffffff"></path></svg>