<?xml version="1.0" standalone="no"?><!DOCTYPE svg PUBLIC "-//W3C//DTD SVG 1.1//EN" "http://www.w3.org/Graphics/SVG/1.1/DTD/svg11.dtd"><svg t="1580810673475" class="icon" viewBox="0 0 1024 1024" version="1.1" xmlns="http://www.w3.org/2000/svg" p-id="2413" xmlns:xlink="http://www.w3.org/1999/xlink" width="200" height="200"><defs><style type="text/css"></style></defs><path d="M512 563.2a153.6 153.6 0 1 0 0-307.2 153.6 153.6 0 0 0 0 307.2z m0 51.2a204.8 204.8 0 1 1 0-409.6 204.8 204.8 0 0 1 0 409.6zM484.9664 665.6a319.2832 319.2832 0 0 0-285.5936 176.4864l-28.2624 56.6272A51.2 51.2 0 0 0 216.8832 972.8h590.2336a51.2 51.2 0 0 0 45.7728-74.0864l-28.2624-56.6272A319.2832 319.2832 0 0 0 539.0336 665.6H484.9664z m0-51.2h54.0672A370.4832 370.4832 0 0 1 870.4 819.2l28.3136 56.6272A102.4 102.4 0 0 1 807.0656 1024H216.9344a102.4 102.4 0 0 1-91.5968-148.1728L153.6 819.2a370.4832 370.4832 0 0 1 331.3664-204.8z" p-id="2414" fill="#008000"></path><path d="M204.8 512v79.9232l-68.2496-19.2a128 128 0 0 1 0-241.408l27.9552-9.8816a358.5536 358.5536 0 0 1 694.9888 0l27.9552 9.8816a128 128 0 0 1 0 241.408L819.2 591.9232V409.6A307.2 307.2 0 1 0 204.8 409.6v102.4z m665.6-132.4032v144.896a76.8 76.8 0 0 0 0-144.896z m-716.8 0a76.8 76.8 0 0 0 0 144.896v-144.896z" p-id="2415" fill="#008000"></path></svg>