<?xml version="1.0" standalone="no"?><!DOCTYPE svg PUBLIC "-//W3C//DTD SVG 1.1//EN" "http://www.w3.org/Graphics/SVG/1.1/DTD/svg11.dtd"><svg t="1577539755632" class="icon" viewBox="0 0 1024 1024" version="1.1" xmlns="http://www.w3.org/2000/svg" p-id="1012" xmlns:xlink="http://www.w3.org/1999/xlink" width="200" height="200"><defs><style type="text/css"></style></defs><path d="M473.1 95.8H114c-10.1 0-18.2 8.2-18.2 18.2v359.1c0 10.1 8.2 18.2 18.2 18.2h359.1c10.1 0 18.2-8.2 18.2-18.2V114c0-10.1-8.2-18.2-18.2-18.2z m-18.2 359.1H132.2V132.2h322.7v322.7zM910 95.8H550.9c-10.1 0-18.2 8.2-18.2 18.2v359.1c0 10.1 8.2 18.2 18.2 18.2H910c10.1 0 18.2-8.2 18.2-18.2V114c0-10.1-8.1-18.2-18.2-18.2z m-18.2 359.1H569.1V132.2h322.7v322.7zM473.1 532.7H114c-10.1 0-18.2 8.2-18.2 18.2V910c0 10.1 8.2 18.2 18.2 18.2h359.1c10.1 0 18.2-8.2 18.2-18.2V550.9c0-10-8.2-18.2-18.2-18.2z m-18.2 359.1H132.2V569.1h322.7v322.7zM910 532.7H550.9c-10.1 0-18.2 8.2-18.2 18.2V910c0 10.1 8.2 18.2 18.2 18.2H910c10.1 0 18.2-8.2 18.2-18.2V550.9c0-10-8.1-18.2-18.2-18.2z m-18.2 359.1H569.1V569.1h322.7v322.7z" fill="#333333" p-id="1013"></path></svg>