<?xml version="1.0" standalone="no"?><!DOCTYPE svg PUBLIC "-//W3C//DTD SVG 1.1//EN" "http://www.w3.org/Graphics/SVG/1.1/DTD/svg11.dtd"><svg t="1577539770172" class="icon" viewBox="0 0 1024 1024" version="1.1" xmlns="http://www.w3.org/2000/svg" p-id="1253" xmlns:xlink="http://www.w3.org/1999/xlink" width="200" height="200"><defs><style type="text/css"></style></defs><path d="M318.7 633.9H82.6c-10.8 0-19.5 8.7-19.5 19.5v236.1c0 10.8 8.7 19.5 19.5 19.5h236.1c10.8 0 19.5-8.7 19.5-19.5V653.4c0-10.8-8.8-19.5-19.5-19.5z m-19.6 236h-197v-197h197v197zM941.4 668.1H446.1c-10.8 0-19.5 8.7-19.5 19.5s8.7 19.5 19.5 19.5h495.3c10.8 0 19.5-8.7 19.5-19.5s-8.7-19.5-19.5-19.5zM941.4 835.7H446.1c-10.8 0-19.5 8.7-19.5 19.5s8.7 19.5 19.5 19.5h495.3c10.8 0 19.5-8.7 19.5-19.5s-8.7-19.5-19.5-19.5zM318.7 115H82.6c-10.8 0-19.5 8.7-19.5 19.5v236.1c0 10.8 8.7 19.5 19.5 19.5h236.1c10.8 0 19.5-8.7 19.5-19.5V134.5c0-10.8-8.8-19.5-19.5-19.5z m-19.6 236.1h-197v-197h197v197zM446.1 188.3h495.3c10.8 0 19.5-8.7 19.5-19.5s-8.7-19.5-19.5-19.5H446.1c-10.8 0-19.5 8.7-19.5 19.5s8.7 19.5 19.5 19.5zM941.4 316.8H446.1c-10.8 0-19.5 8.7-19.5 19.5s8.7 19.5 19.5 19.5h495.3c10.8 0 19.5-8.7 19.5-19.5s-8.7-19.5-19.5-19.5z" fill="#333333" p-id="1254"></path></svg>