<?xml version="1.0" encoding="UTF-8"?>
<svg width="10px" height="12px" viewBox="0 0 10 12" version="1.1" xmlns="http://www.w3.org/2000/svg" xmlns:xlink="http://www.w3.org/1999/xlink">
    <!-- Generator: Sketch 54.1 (76490) - https://sketchapp.com -->
    <title>定位-灰</title>
    <desc>Created with Sketch.</desc>
    <g id="组件" stroke="none" stroke-width="1" fill="none" fill-rule="evenodd">
        <g id="门店选择/选中" transform="translate(-12.000000, -40.000000)" fill="#999999" fill-rule="nonzero">
            <g id="定位-灰">
                <g transform="translate(12.000000, 40.000000)">
                    <path d="M8.20971207,7.81235432 L5.19109528,11.5391157 C4.95183719,11.8308567 4.56123127,11.831991 4.32316263,11.5391157 L1.29261027,7.81235432 C0.56310552,7.01094323 0.102567874,5.93542557 0.102567874,4.78108165 C0.102567874,2.27459983 2.19286328,0.241642776 4.77295417,0.241642776 C7.35255287,0.241642776 9.44286195,2.27459983 9.44286195,4.78108165 C9.44286195,5.96658225 8.97513289,7.00417565 8.20971207,7.81235432 Z M4.77295417,2.5062833 C3.47967532,2.5062833 2.43213504,3.52490167 2.43213504,4.78109454 C2.43213504,6.0377128 3.47967532,7.05589289 4.77295417,7.05589289 C6.06526231,7.05589289 7.11330845,6.0377128 7.11330845,4.78108165 C7.11330845,3.52490167 6.06526231,2.50627041 4.77295417,2.50627041 L4.77295417,2.5062833 Z" id="形状"></path>
                </g>
            </g>
        </g>
    </g>
</svg>