<?xml version="1.0" standalone="no"?><!DOCTYPE svg PUBLIC "-//W3C//DTD SVG 1.1//EN" "http://www.w3.org/Graphics/SVG/1.1/DTD/svg11.dtd"><svg t="1577539568042" class="icon" viewBox="0 0 1024 1024" version="1.1" xmlns="http://www.w3.org/2000/svg" p-id="2545" xmlns:xlink="http://www.w3.org/1999/xlink" width="200" height="200"><defs><style type="text/css"></style></defs><path d="M998.417847 968.923523 738.389131 712.967573c68.050929-73.967263 109.909294-171.800228 109.909294-279.479317 0-230.345352-189.746575-417.036095-423.778057-417.036095-234.030475 0-423.77705 186.690742-423.77705 417.036095 0 230.297023 189.746575 416.986758 423.77705 416.986758 101.131452 0 193.870691-34.971414 266.723355-93.126882l261.095991 256.924553c12.70864 12.514315 33.370499 12.514315 46.078132 0C1011.174816 1001.759377 1011.174816 981.436831 998.417847 968.923523L998.417847 968.923523 998.417847 968.923523zM424.520368 786.354882c-198.040115 0-358.5393-157.977996-358.5393-352.86562 0-194.88863 160.499184-352.866627 358.5393-352.866627C622.562497 80.622635 783.110011 238.600632 783.110011 433.489262 783.110011 628.376886 622.562497 786.354882 424.520368 786.354882L424.520368 786.354882 424.520368 786.354882z" p-id="2546" fill="#5b5b5b"></path></svg>