<?xml version="1.0" encoding="UTF-8"?>
<svg width="13px" height="16px" viewBox="0 0 13 16" version="1.1" xmlns="http://www.w3.org/2000/svg" xmlns:xlink="http://www.w3.org/1999/xlink">
    <!-- Generator: Sketch 54.1 (76490) - https://sketchapp.com -->
    <title>酒店/店铺</title>
    <desc>Created with Sketch.</desc>
    <g id="组件" stroke="none" stroke-width="1" fill="none" fill-rule="evenodd">
        <g id="门店选择/选中" transform="translate(-12.000000, -12.000000)" fill="#FEB21C" fill-rule="nonzero">
            <g id="酒店/店铺">
                <g transform="translate(12.000000, 12.000000)">
                    <path d="M4.91311728,0 L1.83765432,2.42678571 L7.99259259,2.42678571 L4.91311728,0 Z M10.5123457,5.81964286 L10.5123457,16 L13,16 L13,5.81964286 L10.5123457,5.81964286 Z M9.76996262e-14,15.95 L9.83024691,15.95 L9.83024691,3.07321429 L9.76996262e-14,3.07321429 L9.76996262e-14,15.95 Z M6.825,4.4125 C7.41682099,4.4125 7.8962963,4.84821429 7.8962963,5.3875 C7.8962963,5.925 7.41682099,6.3625 6.825,6.3625 C6.23317901,6.3625 5.7537037,5.92678571 5.7537037,5.3875 C5.7537037,4.84821429 6.23317901,4.4125 6.825,4.4125 Z M6.825,7.28392857 C7.41682099,7.28392857 7.8962963,7.71964286 7.8962963,8.25892857 C7.8962963,8.79821429 7.41682099,9.23392857 6.825,9.23392857 C6.23317901,9.23392857 5.7537037,8.79821429 5.7537037,8.25892857 C5.7537037,7.71964286 6.23317901,7.28392857 6.825,7.28392857 L6.825,7.28392857 Z M6.825,10.1571429 C7.41682099,10.1571429 7.8962963,10.5928571 7.8962963,11.1321429 C7.8962963,11.6714286 7.41682099,12.1071429 6.825,12.1071429 C6.23317901,12.1071429 5.7537037,11.6714286 5.7537037,11.1321429 C5.7537037,10.5928571 6.23317901,10.1571429 6.825,10.1571429 Z M6.825,13.0285714 C7.41682099,13.0285714 7.8962963,13.4642857 7.8962963,14.0035714 C7.8962963,14.5410714 7.41682099,14.9785714 6.825,14.9785714 C6.23317901,14.9785714 5.7537037,14.5428571 5.7537037,14.0035714 C5.7537037,13.4660714 6.23317901,13.0285714 6.825,13.0285714 Z M2.84274691,4.4125 C3.4345679,4.4125 3.91404321,4.84821429 3.91404321,5.3875 C3.91404321,5.925 3.4345679,6.3625 2.84274691,6.3625 C2.25092593,6.3625 1.77145062,5.92678571 1.77145062,5.3875 C1.77145062,4.84821429 2.25092593,4.4125 2.84274691,4.4125 Z M2.84274691,7.28392857 C3.4345679,7.28392857 3.91404321,7.71964286 3.91404321,8.25892857 C3.91404321,8.79821429 3.4345679,9.23392857 2.84274691,9.23392857 C2.25092593,9.23392857 1.77145062,8.79821429 1.77145062,8.25892857 C1.77145062,7.71964286 2.25092593,7.28392857 2.84274691,7.28392857 L2.84274691,7.28392857 Z M2.84274691,10.1571429 C3.4345679,10.1571429 3.91404321,10.5928571 3.91404321,11.1321429 C3.91404321,11.6714286 3.4345679,12.1071429 2.84274691,12.1071429 C2.25092593,12.1071429 1.77145062,11.6714286 1.77145062,11.1321429 C1.77145062,10.5928571 2.25092593,10.1571429 2.84274691,10.1571429 Z M2.84274691,13.0285714 C3.4345679,13.0285714 3.91404321,13.4642857 3.91404321,14.0035714 C3.91404321,14.5410714 3.4345679,14.9785714 2.84274691,14.9785714 C2.25092593,14.9785714 1.77145062,14.5428571 1.77145062,14.0035714 C1.77145062,13.4660714 2.25092593,13.0285714 2.84274691,13.0285714 Z" id="形状"></path>
                </g>
            </g>
        </g>
    </g>
</svg>