<?xml version="1.0" encoding="UTF-8"?>
<svg width="11px" height="12px" viewBox="0 0 11 12" version="1.1" xmlns="http://www.w3.org/2000/svg" xmlns:xlink="http://www.w3.org/1999/xlink">
    <!-- Generator: Sketch 54.1 (76490) - https://sketchapp.com -->
    <title>电话-灰</title>
    <desc>Created with Sketch.</desc>
    <g id="组件" stroke="none" stroke-width="1" fill="none" fill-rule="evenodd">
        <g id="门店选择/选中" transform="translate(-12.000000, -88.000000)" fill="#999999" fill-rule="nonzero">
            <g id="电话-灰">
                <g transform="translate(12.000000, 88.000000)">
                    <g id="编组" transform="translate(0.286882, 0.127606)">
                        <path d="M5.68097329,7.94707956 C5.54082638,7.94707956 5.35562554,7.97619293 5.27035548,8.11662585 C5.25156487,8.14801255 5.22764955,8.17631925 5.20074481,8.20066595 C5.16956948,8.22875265 4.88507679,8.47295351 4.51865934,8.47295351 C4.28740644,8.47295351 4.07693793,8.3785734 3.906256,8.19934681 L3.90625598,8.19934679 C3.88712019,8.18260371 3.86973032,8.16385127 3.85436828,8.1433934 L3.8543682,8.1433933 C3.49903455,7.67108454 3.1774903,7.17279113 2.89227529,6.65244755 L2.89227518,6.65244736 C2.63037049,6.17558535 2.39928024,5.68144271 2.20050998,5.1732321 L2.20050996,5.17323205 C2.19256459,5.15268795 2.18639573,5.13146108 2.18207523,5.10979879 C2.10812279,4.74166502 2.1588005,4.4433441 2.33204368,4.22268499 C2.55923868,3.93367828 2.89732731,3.9228974 2.92857409,3.9228974 C2.96523002,3.92165074 3.07612364,3.91945073 3.20680352,3.76266388 C3.4858865,3.42819045 3.60653076,2.72873573 3.51378855,1.98139228 C3.37399752,0.850664012 2.79860598,0.00571550229 2.36983954,0.00571550229 C2.35275716,0.00644883648 2.33617303,0.00916217297 2.31980242,0.0128288439 C2.29047768,0.0184755171 2.26072588,0.0203088526 2.23076055,0.0187688508 C1.8229898,-0.00623784495 1.45016785,0.0759689174 1.13414395,0.261502467 C-0.441638215,1.1887305 -0.361064132,4.54388766 1.30923827,7.587955 C2.65077451,10.03245 4.71902613,11.7390705 6.33957167,11.7390705 C6.69331915,11.7390705 7.0142545,11.6562771 7.29340839,11.4914972 C7.6010329,11.3099239 7.88616728,11.0011902 8.07684816,10.6611423 C8.09286288,10.6323223 8.11357526,10.5969022 8.1429,10.5402888 C8.33422313,10.1701756 7.95990536,9.26553344 7.11155174,8.5774454 C6.6249891,8.18269103 6.0901682,7.94707162 5.68097252,7.94707162 L5.68097329,7.94707956 Z M7.13240501,5.51981502 L7.13240503,5.51981502 C6.93184702,5.51975616 6.76930868,5.35219659 6.76936568,5.14556107 C6.76937181,5.12339174 6.77129037,5.10126682 6.77509869,5.07944755 L6.77509869,5.07944754 C6.80998702,4.88655916 6.76848924,4.68730711 6.65986385,4.52614689 L6.65986385,4.52614689 C6.5521405,4.363954 6.38594533,4.25287105 6.1982839,4.21763377 L6.19828387,4.21763377 C6.00154465,4.18021596 5.87134021,3.98576553 5.90724267,3.78298717 C5.94311565,3.58029331 6.13265826,3.44689954 6.32910554,3.48319958 L6.32910559,3.48319959 C6.70589508,3.55344942 7.03980487,3.77594459 7.25653608,4.10117974 C7.47533309,4.42597373 7.5576129,4.82102029 7.48921251,5.21225408 L7.48921252,5.21225402 C7.45770314,5.38993861 7.30771648,5.51922313 7.1324039,5.51981467 L7.13240501,5.51981502 Z M8.49287393,5.55560173 L8.49287393,5.55560173 C8.29267041,5.55590958 8.1301293,5.38894294 8.12983181,5.18267265 C8.12979879,5.15988257 8.13179044,5.13713732 8.13578185,5.11472136 C8.2355002,4.55284127 8.11692006,3.98369947 7.80089616,3.5120997 C7.48529905,3.04063886 7.01097822,2.72427821 6.46512634,2.62087809 L6.46512632,2.62087808 C6.26842602,2.58346085 6.13825356,2.38904279 6.17415601,2.18630453 L6.17415602,2.18630451 C6.20904504,1.98438266 6.39620323,1.84983303 6.59218759,1.88577929 C6.59349007,1.88601819 6.59479128,1.88626447 6.59609112,1.88651813 C7.33198579,2.02541162 7.9720757,2.45206488 8.3974974,3.08757343 C8.82320409,3.72308055 8.98342223,4.49073535 8.84818678,5.24863194 L8.84818678,5.24863196 C8.8176708,5.42619194 8.66789184,5.55559391 8.49287398,5.55560537 L8.49287393,5.55560173 Z" id="形状"></path>
                        <path d="M9.99847073,5.49936187 C9.97669071,5.49936187 9.95505304,5.49716187 9.93291713,5.49305519 L9.93291709,5.49305519 C9.73600271,5.45592313 9.60557863,5.26136742 9.64159091,5.05848164 C9.80707639,4.12692664 9.61070028,3.18444039 9.08897587,2.40527282 C8.56718083,1.62610525 7.78139168,1.10294435 6.87730349,0.931929958 L6.87730348,0.931929957 C6.68056982,0.894513872 6.55038623,0.700047396 6.58633317,0.497283358 C6.62213498,0.294589502 6.80840402,0.160903539 7.00819605,0.197495769 C8.10253556,0.403929343 9.05310399,1.03767617 9.68536587,1.98067232 C10.3171287,2.9241798 10.5547875,4.06517475 10.3543546,5.19281929 L10.3543546,5.19281922 C10.3230878,5.37010562 10.1733604,5.49906931 9.99847182,5.49935291 L9.99847073,5.49936187 Z" id="路径"></path>
                    </g>
                </g>
            </g>
        </g>
    </g>
</svg>