<?xml version="1.0" encoding="UTF-8"?>
<svg width="11px" height="11px" viewBox="0 0 11 11" version="1.1" xmlns="http://www.w3.org/2000/svg" xmlns:xlink="http://www.w3.org/1999/xlink">
    <!-- Generator: Sketch 54.1 (76490) - https://sketchapp.com -->
    <title>时间 -灰</title>
    <desc>Created with Sketch.</desc>
    <g id="组件" stroke="none" stroke-width="1" fill="none" fill-rule="evenodd">
        <g id="门店选择/选中" transform="translate(-12.000000, -64.000000)" fill="#999999" fill-rule="nonzero">
            <g id="时间--灰">
                <g transform="translate(12.000000, 64.000000)">
                    <path d="M5.58077801,0.148999644 C2.64371005,0.148999644 0.260002719,2.53270697 0.260002719,5.46977493 C0.260002719,8.40684289 2.64371005,10.7905502 5.58077801,10.7905502 C8.51784597,10.7905502 10.9015533,8.40684289 10.9015533,5.46977493 C10.9015533,2.53270697 8.51784597,0.148999644 5.58077801,0.148999644 Z M7.24694078,7.82915872 L7.07059509,7.99942353 C6.97330091,8.0967177 6.81519788,8.0967177 6.7179037,7.99942353 L5.1064689,6.42447404 C5.05174092,6.36974607 5.05782181,6.26029012 5.05782181,6.15083417 L5.05782181,3.06782495 C5.05782181,2.93404545 5.16727776,2.8245895 5.30713814,2.8245895 L5.55645446,2.8245895 C5.69631484,2.8245895 5.80577079,2.93404545 5.80577079,3.06782495 L5.80577079,6.08394442 L7.24694078,7.49470999 C7.34423496,7.58592328 7.34423496,7.73794543 7.24694078,7.82915872 Z" id="形状"></path>
                </g>
            </g>
        </g>
    </g>
</svg>